# xmcd
#
# Track frame offsets: 
#        150
#        14901
#        26981
#        39513
#        53602
#        65680
#        78789
#        91362
#        103501
#        116713
#        129765
#        142781
#        154444
#        167773
#        181953
#        194406
#        205515
#        218066
#        233158
#        246233
#        259861
#        272823
#        284733
#        299205
#        310200
#        332427
#
# Disc length: 4643 seconds
#
# Revision: 0
# Processed by: cddbd v1.5.1PL0 Copyright (c) Steve Scherf et al.
# Submitted via: ExactAudioCopy v0.95a5
#
DISCID=8712211a
DTITLE=Various Artist - California Blues
DYEAR=1900
DGENRE=Blues
TTITLE0=T-Bone Walker - T-Bone Blues
TTITLE1=Cecil Grant - I Wonder
TTITLE2=[unknown] - [unknown]
TTITLE3=Roy Milton - Burma Road (Parts 1 and 2)
TTITLE4=Charles Brown - Sunny Road
TTITLE5=Lowell Fulson - Scotty's Blues
TTITLE6=Wynonie Harris - Wynonie Blues
TTITLE7=Helen Humes - Be-Baba-Leba
TTITLE8=Amos Milburn - After Midnight
TTITLE9=T-Bone Walker - I'm Gonna Find My Baby
TTITLE10=Dinah Washington - Chewin' Mama Blues
TTITLE11=Jack McVea - New Worried Life Blues
TTITLE12=Cecil Grant - What's on Your Worried Mind
TTITLE13=Bob Moseley - Baggin' the Boogie
TTITLE14=Wynonie Harris - Somebody Done Changed the Lock on My Door
TTITLE15=Amos Milburn - My Baby's Boogying
TTITLE16=Duke Henderson - Oo Wee Baby, Oo Wee
TTITLE17=Jack McVea - Silver Symphony
TTITLE18=Wynonie Harris - Here Come the Blues
TTITLE19=Dinah Washington - No Voot, No Boot
TTITLE20=T-Bone Walker - Mean Old World
TTITLE21=Wynonie Harris - Playful Baby
TTITLE22=Charles Brown - Drifting Blues
TTITLE23=Amos Milburn - Amos Blues
TTITLE24=T-Bone Walker - Bobby Sox Baby
TTITLE25=Cecil Grant - Blues in LA
EXTD=
EXTT0=
EXTT1=
EXTT2=
EXTT3=
EXTT4=
EXTT5=
EXTT6=
EXTT7=
EXTT8=
EXTT9=
EXTT10=
EXTT11=
EXTT12=
EXTT13=
EXTT14=
EXTT15=
EXTT16=
EXTT17=
EXTT18=
EXTT19=
EXTT20=
EXTT21=
EXTT22=
EXTT23=
EXTT24=
EXTT25=
PLAYORDER=
